<?xml version="1.0" encoding="UTF-8" standalone="no"?>
<!-- Created with Inkscape (http://www.inkscape.org/) -->

<svg
   version="1.1"
   id="svg9"
   width="204"
   height="204"
   viewBox="0 0 204 204"
   sodipodi:docname="Chamber_icon_bridge_shield_on.svg"
   inkscape:version="1.1.2 (b8e25be833, 2022-02-05)"
   xmlns:inkscape="http://www.inkscape.org/namespaces/inkscape"
   xmlns:sodipodi="http://sodipodi.sourceforge.net/DTD/sodipodi-0.dtd"
   xmlns="http://www.w3.org/2000/svg"
   xmlns:svg="http://www.w3.org/2000/svg">
  <defs
     id="defs13" />
  <sodipodi:namedview
     id="namedview11"
     pagecolor="#505050"
     bordercolor="#eeeeee"
     borderopacity="1"
     inkscape:pageshadow="0"
     inkscape:pageopacity="0"
     inkscape:pagecheckerboard="0"
     showgrid="false"
     inkscape:zoom="3.9607843"
     inkscape:cx="106.54455"
     inkscape:cy="91.143564"
     inkscape:window-width="1920"
     inkscape:window-height="1017"
     inkscape:window-x="-8"
     inkscape:window-y="-8"
     inkscape:window-maximized="1"
     inkscape:current-layer="g15" />
  <g
     inkscape:groupmode="layer"
     inkscape:label="Image"
     id="g15">
    <path
       style="fill:#000000"
       d="M 2.7574253,101.4901 V 0.99009897 h 100.0000047 100 V 101.4901 v 100.5 h -100 H 2.7574253 Z m 196.0000047,-0.5 V 4.990099 h -96 -96.0000047 v 96.000001 96 h 96.0000047 96 z M 26.193501,182.59143 c -1.356029,-5.40285 2.247436,-18.44924 7.030827,-25.4552 6.058711,-8.87385 7.168074,-27.9252 1.244974,-21.38025 -0.990559,1.09455 -1.714766,4.04082 -1.904988,7.75 -0.570321,11.12085 -6.764202,8.97545 -6.791576,-2.35243 l -0.01531,-6.33656 6.158507,-6.41344 6.158508,-6.41345 h 13.753592 13.753594 l 0.704028,-4.25 c 0.88867,-5.36464 2.131625,-7.75 4.038337,-7.75 2.486035,0 2.722121,2.60478 0.955708,10.54447 -1.892106,8.50465 -3.007086,9.45553 -11.087377,9.45553 h -4.4349 v 10.38373 10.38373 l 4.340371,6.36627 c 4.993662,7.32449 8.992457,23.55538 6.533332,26.51845 -3.309572,3.98779 -6.289925,1.26716 -8.002544,-7.30516 -5.208022,-26.06817 -20.915269,-25.64734 -24.372181,0.65298 -1.053274,8.01335 -6.506672,11.80184 -8.062902,5.60133 z m 48.726559,-0.27597 c 1.074741,-4.167 -4.535228,-22.70271 -8.509911,-28.11731 -3.316975,-4.51862 -3.652724,-5.57235 -3.652724,-11.46384 v -6.48784 l 4.068539,0.10668 c 4.637139,0.12159 7.354687,-2.47504 8.395248,-8.02171 1.739544,-9.27257 3.570116,-13.34134 6.002373,-13.34134 2.994026,0 6.53384,-4.33413 6.53384,-8 0,-6.47159 -7.980735,-10.869027 -12.996161,-7.160957 -1.398387,1.033867 -3.558307,2.202167 -4.799822,2.596207 -2.915808,0.92544 -5.093826,4.31484 -6.609921,10.28626 -1.053314,4.14867 -1.585957,4.82194 -4.041229,5.10819 -2.41003,0.28097 -2.712874,0.0593 -2.049009,-1.5 4.135874,-9.71424 -1.785679,-18.096467 -12.036679,-17.038467 l -5.467179,0.56426 V 60.417846 c 0,-30.868399 0.271362,-39.43065 1.25,-39.44112 0.6875,-0.0074 11.825,-0.906101 24.75,-1.997215 12.925,-1.091113 24.077461,-1.985095 24.78325,-1.986627 1.02749,-0.0022 1.22679,7.869882 1,39.497684 -0.15579,21.725255 0.0808,39.500255 0.52577,39.500005 0.44496,-2.6e-4 0.52208,0.46379 0.17139,1.03122 -0.95157,1.53968 -1.10975,19.968927 -0.17139,19.968587 0.44496,-1.5e-4 0.48268,0.52774 0.0838,1.17309 -1.40796,2.27812 -1.00406,6.89157 0.55108,6.29472 1.11768,-0.42895 1.07729,-0.14902 -0.17874,1.23888 -2.31898,2.56244 -2.20987,3.70103 0.42579,4.44335 2.01327,0.56703 2.05285,0.66298 0.30902,0.74918 -1.94886,0.0963 -1.99271,0.69844 -1.71502,23.54578 0.32203,26.49534 1.02812,24.24065 -8.284982,26.45586 -2.75,0.65411 -5.798804,1.42786 -6.77512,1.71944 -0.976316,0.29158 -1.679327,0.15873 -1.562245,-0.29522 z m 23.587365,-52.98764 c 0.6875,-0.27741 1.812505,-0.27741 2.500005,0 0.6875,0.27741 0.125,0.50439 -1.250005,0.50439 -1.375,0 -1.9375,-0.22698 -1.25,-0.50439 z m -2.75,-6.83772 c 0,-0.275 0.225,-0.5 0.5,-0.5 0.275,0 0.5,0.225 0.5,0.5 0,0.275 -0.225,0.5 -0.5,0.5 -0.275,0 -0.5,-0.225 -0.5,-0.5 z m 3.43257,-2.3909 c 0.71346,-1.15439 4.567435,-3.48267 4.567435,-2.75929 0,0.23109 -1.18041,1.1936 -2.62312,2.13891 -1.442725,0.9453 -2.317665,1.22448 -1.944315,0.62038 z M 40.21197,117.53555 c -3.279732,-3.27973 -3.209091,-7.51818 0.181819,-10.90909 5.270188,-5.27018 13.363636,-1.91259 13.363636,5.54395 0,3.92557 -3.983912,7.81969 -8,7.81969 -1.948373,0 -3.998217,-0.90731 -5.545455,-2.45455 z m 54.545455,-2.04545 c 0,-0.275 0.225,-0.5 0.5,-0.5 0.275,0 0.5,0.225 0.5,0.5 0,0.275 -0.225,0.5 -0.5,0.5 -0.275,0 -0.5,-0.225 -0.5,-0.5 z m 12.500005,-1.5 c 0.33992,-0.55 0.84303,-1 1.11803,-1 0.275,0 0.22189,0.45 -0.11803,1 -0.33992,0.55 -0.84303,1 -1.11803,1 -0.275,0 -0.22189,-0.45 0.11803,-1 z m 46.11522,-4.5 c -0.33837,-3.025 -0.89207,-7.975 -1.23044,-10.999997 l -0.61523,-5.5 h 3.74607 3.74606 l -0.6458,3.75 c -0.3552,2.0625 -1.16976,7.012497 -1.81014,10.999997 -1.39153,8.66483 -2.35775,9.1948 -3.19052,1.75 z m -75.536278,1.91667 c 0.04798,-1.16495 0.284941,-1.4019 0.604167,-0.60417 0.288871,0.72187 0.253344,1.58437 -0.07895,1.91667 -0.332292,0.33229 -0.568641,-0.25834 -0.52522,-1.3125 z m 20.921053,1.08333 c 0,-0.275 0.225,-0.5 0.5,-0.5 0.275,0 0.5,0.225 0.5,0.5 0,0.275 -0.225,0.5 -0.5,0.5 -0.275,0 -0.5,-0.225 -0.5,-0.5 z m 12.000005,-1 c 0,-0.275 0.225,-0.5 0.5,-0.5 0.275,0 0.5,0.225 0.5,0.5 0,0.275 -0.225,0.5 -0.5,0.5 -0.275,0 -0.5,-0.225 -0.5,-0.5 z m -9,-1 c 0,-0.275 0.225,-0.5 0.5,-0.5 0.275,0 0.5,0.225 0.5,0.5 0,0.275 -0.225,0.5 -0.5,0.5 -0.275,0 -0.5,-0.225 -0.5,-0.5 z m 27.45298,-3 c 0.33848,-2.2 0.87315,-5.2938 1.18815,-6.87511 0.43422,-2.179767 0.26222,-2.683187 -0.71121,-2.081577 -0.70618,0.43644 0.0332,-0.85725 1.64306,-2.87486 2.09498,-2.62561 3.70874,-3.6684 5.67702,-3.66842 2.82743,-3e-5 3.45568,0.88205 1.81619,2.54997 -0.5136,0.5225 -3.02515,4.55 -5.58122,8.949997 -4.37562,7.53214 -4.61142,7.76607 -4.03199,4 z m -23.95298,0.5 c 0.33992,-0.55 0.84303,-1 1.11803,-1 0.275,0 0.22189,0.45 -0.11803,1 -0.33992,0.55 -0.84303,1 -1.11803,1 -0.275,0 -0.22189,-0.45 0.11803,-1 z m 9.5,0.5 c 0,-0.275 0.225,-0.5 0.5,-0.5 0.275,0 0.5,0.225 0.5,0.5 0,0.275 -0.225,0.5 -0.5,0.5 -0.275,0 -0.5,-0.225 -0.5,-0.5 z m 62.60591,-3.93924 c -0.88325,-2.50842 -2.31842,-6.586517 -3.18926,-9.062437 -0.87084,-2.47592 -2.49333,-5.13905 -3.60553,-5.91807 -2.01283,-1.40983 -2.01049,-1.43602 0.5041,-5.6528 l 2.52629,-4.23641 2.07551,3.40448 c 1.14153,1.87246 2.07719,3.98471 2.07924,4.69389 0.002,0.70918 0.4835,5.59192 1.06987,10.85054 1.21646,10.909337 0.83745,12.446137 -1.46022,5.920807 z m -95.605915,2.93924 c 0,-0.275 0.225,-0.5 0.5,-0.5 0.275,0 0.5,0.225 0.5,0.5 0,0.275 -0.225,0.5 -0.5,0.5 -0.275,0 -0.5,-0.225 -0.5,-0.5 z m -8,-1 c 0,-0.275 0.225,-0.5 0.5,-0.5 0.275,0 0.5,0.225 0.5,0.5 0,0.275 -0.225,0.5 -0.5,0.5 -0.275,0 -0.5,-0.225 -0.5,-0.5 z m 44.000005,0 c 0,-0.275 0.225,-0.5 0.5,-0.5 0.275,0 0.5,0.225 0.5,0.5 0,0.275 -0.225,0.5 -0.5,0.5 -0.275,0 -0.5,-0.225 -0.5,-0.5 z m -37.595497,-1.65451 c -0.442079,-0.7153 -0.274316,-0.88306 0.440984,-0.44098 1.152752,0.71244 1.547665,1.59549 0.713525,1.59549 -0.242541,0 -0.762069,-0.51953 -1.154509,-1.15451 z m 41.095497,-0.84549 c 0.33992,-0.55 0.84303,-1 1.11803,-1 0.275,0 0.22189,0.45 -0.11803,1 -0.33992,0.55 -0.84303,1 -1.11803,1 -0.275,0 -0.22189,-0.45 0.11803,-1 z m -8.5,-1.5 c 0,-0.275 0.225,-0.5 0.5,-0.5 0.275,0 0.5,0.225 0.5,0.5 0,0.275 -0.225,0.5 -0.5,0.5 -0.275,0 -0.5,-0.225 -0.5,-0.5 z m -11.66667,-1.16667 c 0.36667,-0.36666 0.96667,-0.36666 1.33334,0 0.36666,0.36667 0.0667,0.66667 -0.66667,0.66667 -0.73333,0 -1.03333,-0.3 -0.66667,-0.66667 z m -6.064305,-1.02632 c 0.97297,-0.25354 2.32297,-0.23687 3,0.037 0.67703,0.27393 -0.11903,0.48137 -1.76903,0.46099 -1.65,-0.0204 -2.20394,-0.2445 -1.23097,-0.49804 z m 30.730975,0.19299 c 0,-0.275 0.225,-0.499997 0.5,-0.499997 0.275,0 0.5,0.224997 0.5,0.499997 0,0.275 -0.225,0.5 -0.5,0.5 -0.275,0 -0.5,-0.225 -0.5,-0.5 z M 93.257425,97.990103 c 0.33992,-0.55 0.84303,-1 1.11803,-1 0.275,0 0.22189,0.45 -0.11803,1 -0.33992,0.55 -0.84303,1 -1.11803,1 -0.275,0 -0.22189,-0.45 0.11803,-1 z m 26.500005,-0.5 c 0,-0.275 0.225,-0.5 0.5,-0.5 0.275,0 0.5,0.225 0.5,0.5 0,0.275 -0.225,0.5 -0.5,0.5 -0.275,0 -0.5,-0.225 -0.5,-0.5 z m -23.500005,-1.5 c 0.33992,-0.55 0.84303,-1 1.11803,-1 0.275,0 0.22189,0.45 -0.11803,1 -0.33992,0.55 -0.84303,1 -1.11803,1 -0.275,0 -0.22189,-0.45 0.11803,-1 z m 27.000005,-1 c 0.33992,-0.55 0.84303,-1 1.11803,-1 0.275,0 0.22189,0.45 -0.11803,1 -0.33992,0.55 -0.84303,1 -1.11803,1 -0.275,0 -0.22189,-0.45 0.11803,-1 z m -30.500005,-1 c 0,-0.73334 0.3,-1.03334 0.66667,-0.66667 0.36666,0.36667 0.36666,0.96667 0,1.33333 -0.36667,0.36667 -0.66667,0.0667 -0.66667,-0.66666 z m 7.500005,-1 c 0.33992,-0.55 0.84303,-1 1.11803,-1 0.275,0 0.22189,0.45 -0.11803,1 -0.33992,0.55 -0.84303,1 -1.11803,1 -0.275005,0 -0.221895,-0.45 0.11803,-1 z m 43.72641,-0.25 c -4.94988,-6.0751 -5.23911,-36.563237 -0.42616,-44.92164 3.78651,-6.57584 10.12213,-6.117551 14.0577,1.016868 l 2.37339,4.3025 -3.61567,7.028857 c -3.87276,7.528643 -4.85172,13.511706 -2.03388,12.4304 0.86998,-0.333844 1.99498,-0.606989 2.5,-0.606989 0.50501,0 0.91821,-0.887169 0.91821,-1.971487 0,-2.985699 4.42456,-12.27377 6.89091,-14.465441 8.23531,-7.318148 9.15792,20.167145 1.05255,31.356282 -4.58077,6.32356 -7.77763,5.03768 -8.09129,-3.25458 -0.14361,-3.79693 -0.51836,-4.66477 -2.0143,-4.66477 -1.01083,0 -1.83787,-0.45 -1.83787,-1 0,-0.550004 0.9,-1.000004 2,-1.000004 1.11111,0 2,-0.666667 2,-1.5 0,-6.302773 -4.67992,-0.991573 -6.19428,7.029834 -1.99998,10.59369 -4.51346,13.98295 -7.57931,10.22017 z m 3.16682,-19.180606 c 0.68638,-2.734766 -0.81422,-7.569398 -2.34943,-7.569398 -1.40518,0 -2.38556,4.502195 -1.63316,7.5 0.80133,3.192748 3.18824,3.234341 3.98259,0.0694 z m -19.89323,18.430606 c 0.33992,-0.55 0.84303,-1 1.11803,-1 0.275,0 0.22189,0.45 -0.11803,1 -0.33992,0.55 -0.84303,1 -1.11803,1 -0.275,0 -0.22189,-0.45 0.11803,-1 z m -33.342105,-2 c 0,-1.375 0.22697,-1.9375 0.50438,-1.25 0.27741,0.6875 0.27741,1.8125 0,2.5 -0.27741,0.6875 -0.50438,0.125 -0.50438,-1.25 z m 9.842105,0.5 c 0,-0.275 0.225,-0.5 0.5,-0.5 0.275,0 0.5,0.225 0.5,0.5 0,0.275 -0.225,0.5 -0.5,0.5 -0.275,0 -0.5,-0.225 -0.5,-0.5 z m 26.5,-0.5 c 0.33992,-0.55 0.84303,-1 1.11803,-1 0.275,0 0.22189,0.45 -0.11803,1 -0.33992,0.55 -0.84303,1 -1.11803,1 -0.275,0 -0.22189,-0.45 0.11803,-1 z m 3.69153,-2.75 c 0.10534,-0.4125 -0.34466,-3.13465 -1,-6.04922 -2.2974,-10.217507 -0.24368,-25.200784 3.4542,-25.200784 1.10876,0 1.35147,0.51274 0.82837,1.75 -2.22435,5.261172 -1.29043,26.777234 1.12211,25.851454 1.04895,-0.40252 1.08967,-0.006 0.19996,1.94655 -0.97824,2.14701 -5.10811,3.67351 -4.60464,1.702 z m -23.19153,-1.75 c 0,-0.275 0.225,-0.5 0.5,-0.5 0.275,0 0.5,0.225 0.5,0.5 0,0.275 -0.225,0.5 -0.5,0.5 -0.275,0 -0.5,-0.225 -0.5,-0.5 z m 4,-3 c 0,-0.275 0.225,-0.5 0.5,-0.5 0.275,0 0.5,0.225 0.5,0.5 0,0.275 -0.225,0.5 -0.5,0.5 -0.275,0 -0.5,-0.225 -0.5,-0.5 z m 7.5,-5.500004 c 0.33992,-0.55 0.84303,-1 1.11803,-1 0.275,0 0.22189,0.45 -0.11803,1 -0.33992,0.550004 -0.84303,1.000004 -1.11803,1.000004 -0.275,0 -0.22189,-0.45 0.11803,-1.000004 z m 3,-2 c 0.33992,-0.55 0.84303,-1 1.11803,-1 0.275,0 0.22189,0.45 -0.11803,1 -0.33992,0.55 -0.84303,1 -1.11803,1 -0.275,0 -0.22189,-0.45 0.11803,-1 z"
       id="path1862"
       inkscape:export-filename="C:\Users\janek\OneDrive\Desktop\Portal Icons\path1862.png"
       inkscape:export-xdpi="288"
       inkscape:export-ydpi="288" />
  </g>
</svg>
