<?xml version="1.0" encoding="UTF-8" standalone="no"?>
<!-- Created with Inkscape (http://www.inkscape.org/) -->

<svg
   version="1.1"
   id="svg2274"
   width="204.8"
   height="204.8"
   viewBox="0 0 204.8 204.8"
   sodipodi:docname="Weighted_Companion_Cube_Icon.svg"
   inkscape:version="1.1.2 (b8e25be833, 2022-02-05)"
   xmlns:inkscape="http://www.inkscape.org/namespaces/inkscape"
   xmlns:sodipodi="http://sodipodi.sourceforge.net/DTD/sodipodi-0.dtd"
   xmlns="http://www.w3.org/2000/svg"
   xmlns:svg="http://www.w3.org/2000/svg">
  <defs
     id="defs2278" />
  <sodipodi:namedview
     id="namedview2276"
     pagecolor="#505050"
     bordercolor="#eeeeee"
     borderopacity="1"
     inkscape:pageshadow="0"
     inkscape:pageopacity="0"
     inkscape:pagecheckerboard="0"
     showgrid="false"
     inkscape:zoom="4.0576171"
     inkscape:cx="39.18556"
     inkscape:cy="102.52323"
     inkscape:window-width="1920"
     inkscape:window-height="1017"
     inkscape:window-x="-8"
     inkscape:window-y="-8"
     inkscape:window-maximized="1"
     inkscape:current-layer="g2280" />
  <g
     inkscape:groupmode="layer"
     inkscape:label="Image"
     id="g2280">
    <path
       style="fill:#000000;stroke-width:0.32"
       d="m 3.3964183,196.86857 c -1.4254706,-0.57659 -1.3809189,2.58584 -1.3809189,-98.022384 0,-94.5027533 0.012447,-96.4809563 0.6117289,-97.2210363 L 3.2389575,0.86969872 H 100.0955 196.95205 l 0.61173,0.75545098 c 0.96169,1.187647 0.96169,193.4614403 0,194.6491003 l -0.61172,0.75545 -96.42828,0.0608 c -55.240995,0.0348 -96.7268781,-0.06 -97.1273617,-0.22195 z M 194.0155,98.949696 V 4.8696987 H 100.0955 6.1754993 V 98.949696 193.0297 h 93.9200007 93.92 z M 54.570696,167.66508 50.655499,163.74046 v -8.23538 -8.23538 h 7.934634 7.934633 l 4.225367,4.19138 4.225366,4.19137 v 7.96863 7.96862 h -8.244803 -8.2448 z m 37.044803,-4.16 v -8.08462 l 4.084448,-4.07538 4.084452,-4.07538 h 8.075551 8.07555 v 8.21147 8.21146 l -3.90361,3.94854 -3.9036,3.94853 h -8.256401 -8.25639 z m 31.360001,4.78429 c -4.341,-1.37593 -6.96388,-9.09848 -4.67744,-13.7718 1.37804,-2.81661 1.36844,-2.81172 19.27568,-9.80787 9.23498,-3.608 16.8105,-6.67968 16.8345,-6.82596 0.0661,-0.40291 -7.56024,-17.47664 -7.81045,-17.48595 -0.11974,-0.004 -0.20956,0.38791 -0.1996,0.87191 0.01,0.484 -9.6e-4,4.12 -0.0242,8.08 l -0.0422,7.2 -13.51815,5.34589 c -7.43497,2.94024 -13.77014,5.43965 -14.07814,5.55424 -0.52916,0.19687 -0.56,-0.78279 -0.56,-17.79228 v -18.00063 l -3.28,-3.3523 c -4.55666,-4.6571 -2.02955,-4.23492 -25.349723,-4.23492 -11.005654,0 -20.010278,-0.0777 -20.010278,-0.17275 0,-3.76709 19.056486,-16.891954 28.3285,-19.510814 l 2.888501,-0.81585 24.34412,0.0897 24.34412,0.0897 2.19496,1.12 c 4.85266,2.47611 5.3399,3.47589 15.32021,31.435984 11.48364,32.17175 11.49943,33.3852 0.48541,37.30161 -3.08563,1.09721 -35.52513,13.51617 -37.80514,14.47312 -1.67506,0.70304 -4.79322,0.80086 -6.66068,0.20895 z m -45.690158,-6.85967 0.09016,-3.76 5.84,-0.0872 5.84,-0.0872 v 3.84722 3.84722 h -5.930157 -5.930153 z m -5.594131,-11.52414 -4.395712,-4.40414 v -1.99586 -1.99586 h 3.766003 3.766003 l 3.113997,3.12572 3.113997,3.12573 v 3.27427 3.27428 h -2.484288 -2.484285 z m 13.844288,1.11814 v -3.28601 l 3.125725,-3.11399 3.125725,-3.114 h 3.754275 3.754275 v 1.97436 1.97437 l -4.385245,4.42563 -4.385241,4.42564 h -2.494759 -2.494755 z m -53.20497,-5.06218 c -7.369259,-1.73617 -11.586543,-10.21055 -8.46953,-17.019 3.639345,-7.94938 13.785873,-9.87866 20.019214,-3.8065 8.755142,8.52876 0.377088,23.63542 -11.549684,20.8255 z m 24.40497,-7.17182 v -5.92 h 3.84 3.84 v 5.92 5.92 h -3.84 -3.84 z m 45.333331,5.70667 c -0.11733,-0.11734 -0.21333,-2.78134 -0.21333,-5.92 v -5.70667 h 4 4 v 5.92 5.92 h -3.78667 c -2.08266,0 -3.88266,-0.096 -4,-0.21333 z m -34.773331,-9.95096 v -2.16428 l 4.404141,-4.39572 4.404144,-4.39571 h 2.475856 2.475859 v 3.28572 3.28571 l -3.285462,3.27429 -3.285466,3.27428 h -3.594534 -3.594538 z m 21.406166,-0.92481 -3.166166,-3.1107 v -3.4601 -3.4601 h 2.357136 2.357136 l 4.365709,4.35562 c 4.566589,4.55604 4.784989,4.89586 4.621069,7.19005 l -0.10105,1.41433 -3.633834,0.0908 -3.633836,0.0908 z M 50.655499,122.37331 v -8.2564 l 3.948534,-3.9036 3.948538,-3.90361 h 8.211462 8.211466 v 8.08462 8.08462 l -4.084448,4.07538 -4.084451,4.07538 h -8.075549 -8.075552 z m 45.035382,4.17194 -4.075382,-4.08445 v -8.07555 -8.07555 h 8.08462 8.084621 l 4.07538,4.08445 4.07538,4.08445 v 8.07555 8.07555 h -8.08462 -8.084621 z m -18.336854,-6.89612 c -0.08876,-0.23131 -0.120243,-1.99531 -0.06996,-3.92 l 0.09143,-3.49943 5.84,-0.0872 5.84,-0.0872 v 4.00722 4.00722 h -5.770042 c -4.471318,0 -5.806368,-0.0947 -5.93143,-0.42057 z M 59.615499,79.034601 c -4.403194,-2.194496 -7.836579,-3.08039 -14.08,-3.632972 C 35.003768,74.469504 30.782401,72.376656 28.128585,66.771709 21.307569,52.365507 33.088369,40.804569 46.519611,48.723917 l 1.487773,0.877222 0.195296,-2.285722 c 0.790656,-9.253644 8.216758,-13.902102 17.246259,-10.795497 11.127654,3.828473 12.318858,14.174422 3.264874,28.356374 -3.535412,5.537786 -5.566375,10.646682 -5.583213,14.044592 -0.0084,1.701443 -0.309811,1.711191 -3.515101,0.113715 z M 115.31956,75.262979 C 94.962043,70.964048 87.707317,45.886413 102.7233,31.721094 c 15.60599,-14.721902 41.31502,-4.706617 42.86209,16.697479 1.18928,16.453958 -14.32158,30.211382 -30.26583,26.844406 z"
       id="path2284" />
  </g>
</svg>
