<?xml version="1.0" encoding="UTF-8" standalone="no"?>
<!-- Created with Inkscape (http://www.inkscape.org/) -->

<svg
   version="1.1"
   id="svg2404"
   width="204"
   height="205"
   viewBox="0 0 204 205"
   sodipodi:docname="Chamber_icon_pass_cube_on.svg"
   inkscape:version="1.1.2 (b8e25be833, 2022-02-05)"
   xmlns:inkscape="http://www.inkscape.org/namespaces/inkscape"
   xmlns:sodipodi="http://sodipodi.sourceforge.net/DTD/sodipodi-0.dtd"
   xmlns="http://www.w3.org/2000/svg"
   xmlns:svg="http://www.w3.org/2000/svg">
  <defs
     id="defs2408" />
  <sodipodi:namedview
     id="namedview2406"
     pagecolor="#505050"
     bordercolor="#eeeeee"
     borderopacity="1"
     inkscape:pageshadow="0"
     inkscape:pageopacity="0"
     inkscape:pagecheckerboard="0"
     showgrid="false"
     inkscape:zoom="4.0536585"
     inkscape:cx="38.730445"
     inkscape:cy="102.62335"
     inkscape:window-width="1920"
     inkscape:window-height="1017"
     inkscape:window-x="-8"
     inkscape:window-y="-8"
     inkscape:window-maximized="1"
     inkscape:current-layer="g2410" />
  <g
     inkscape:groupmode="layer"
     inkscape:label="Image"
     id="g2410">
    <path
       style="fill:#000000"
       d="M 2.7400722,103.24669 V 3.2466902 h 99.9999978 100 v 99.9999998 100 h -100 -99.9999978 z m 195.9999978,0 V 7.2466902 h -96 -95.9999978 v 95.9999998 96 h 95.9999978 96 z m -98.999998,65 v -23 h -43.5 -43.5 v -2.5 -2.5 h 35.035184 c 34.136382,0 35.009042,-0.0488 34.016202,-1.90398 -0.663397,-1.23957 -0.700179,-3.76954 -0.105406,-7.25 0.502468,-2.94031 1.200519,-8.33239 1.551225,-11.98241 l 0.637649,-6.63638 -7.685986,-7.81172 c -8.916987,-9.062852 -7.519438,-9.528192 -15.474758,5.15256 -4.987927,9.20472 -6.897587,11.22189 -20.066481,21.19619 -6.204405,4.6993 -8.931951,5.21142 -11.907629,2.23574 -3.636222,-3.63622 -2.354432,-6.08387 6.737302,-12.86526 3.719484,-2.7743 7.496894,-5.6377 8.394245,-6.36309 0.897351,-0.7254 5.022402,-7.38327 9.166781,-14.795282 4.14438,-7.412 8.491629,-14.60137 9.660555,-15.97637 1.168925,-1.375 3.957168,-4.75 6.196095,-7.5 2.238927,-2.75 6.066749,-7.141491 8.506271,-9.75887 l 4.435494,-4.758872 4.701629,3.494063 c 2.585895,1.921735 5.151628,3.860919 5.701628,4.309298 0.55,0.448381 1.797707,1.119841 2.772681,1.492131 3.357078,1.28189 3.102779,3.53173 -1.667477,14.75256 -0.438185,1.03072 1.478831,3.80034 5.872112,8.48377 6.427412,6.851902 7.736052,9.872552 5.322682,12.285922 -2.59895,2.59895 -5.439172,1.10449 -13.71914,-7.218722 l -8.374987,-8.41872 0.62784,-4.58059 c 0.345312,-2.51933 0.910274,-5.7059 1.255472,-7.08128 0.346542,-1.38073 0.193051,-2.50069 -0.342723,-2.50069 -1.083178,0 -3.24646,9.6275 -3.24646,14.44809 0,2.49136 1.218091,4.30875 6.087925,9.08322 3.348358,3.282782 6.524195,7.078442 7.057416,8.434812 0.759781,1.93267 1.157891,2.16127 1.840462,1.05685 0.699899,-1.13246 1.373745,-1.18018 3.430734,-0.24295 6.890991,3.13975 11.338211,-3.54741 7.487201,-11.258312 l -2.09626,-4.19736 3.01538,-5.91217 c 5.61482,-11.0088 4.01495,-10.80779 19.29373,-2.4241 7.36088,4.03903 15.22909,8.22449 17.48492,9.30103 l 4.10151,1.95734 -4.93293,9.126782 c -2.71312,5.01972 -6.95723,12.86195 -9.43136,17.42717 l -4.49841,8.3004 -5.67016,-3.20682 c -13.46755,-7.61672 -29.338111,-16.05472 -29.600284,-15.73777 -0.156409,0.18908 -1.022052,5.9208 -1.923651,12.73714 -0.901599,6.81634 -2.145935,13.00384 -2.765192,13.75 -0.932226,1.12326 0.271398,1.35665 6.996524,1.35665 h 8.122443 v 25.5 25.5 h -2.5 -2.499998 z m 53.999998,19.21793 c 0,-2.08014 0.68582,-6.24264 1.52403,-9.25 0.83822,-3.00736 1.6502,-6.01741 1.80439,-6.68899 0.1542,-0.67158 0.59338,-1.53408 0.97597,-1.91666 1.68939,-1.6894 0.29879,-5.22705 -3.86331,-9.82818 l -4.49207,-4.96591 0.27549,-14.42665 c 0.30559,-16.00247 1.33838,-18.65708 5.71696,-14.69451 1.85996,1.68323 2.05854,3.01932 2.05854,13.85014 v 11.9872 l 4.3387,5.10782 c 2.38628,2.80929 5.99392,7.47656 8.01697,10.3717 l 3.67827,5.26389 -1.06154,6.64496 c -0.58384,3.65473 -0.78072,7.92348 -0.43751,9.48611 l 0.62402,2.84115 h -9.57945 -9.57946 z m 20.41519,-23.63934 c -8.89962,-3.8749 -10.94384,-15.8712 -3.67838,-21.5862 11.27772,-8.87106 26.66202,5.25466 18.29791,16.80098 -3.98295,5.4983 -9.11996,7.17973 -14.61953,4.78522 z M 163.36651,136.0566 c 0.18505,-9.06172 4.95747,-12.69692 9.34545,-7.11852 3.04177,3.86699 2.21973,6.34639 -3.3349,10.05861 -6.29873,4.2095 -6.15796,4.27835 -6.01055,-2.94009 z M 95.009767,64.776087 c -6.621984,-2.903326 -9.17627,-11.708426 -5.2428,-18.072913 6.088868,-9.851996 20.973103,-4.921974 20.973103,6.946803 0,8.886134 -7.97451,14.526539 -15.730303,11.12611 z"
       id="path2414" />
  </g>
</svg>
